<svg width="585" height="95" viewBox="0 0 585 95" fill="none" xmlns="http://www.w3.org/2000/svg">
    <path d="M6.65188e-05 73.8066V3.98846H27.5455C32.841 3.98846 37.3523 4.99982 41.0796 7.02255C44.8069 9.02255 47.6478 11.8066 49.6023 15.3748C51.5796 18.9203 52.5683 23.0112 52.5683 27.6475C52.5683 32.2839 51.5683 36.3748 49.5683 39.9203C47.5683 43.4657 44.6705 46.2271 40.8751 48.2044C37.1023 50.1816 32.5342 51.1703 27.1705 51.1703H9.6137V39.3407H24.7842C27.6251 39.3407 29.966 38.8521 31.8069 37.8748C33.6705 36.8748 35.0569 35.4998 35.966 33.7498C36.8978 31.9771 37.3637 29.943 37.3637 27.6475C37.3637 25.3294 36.8978 23.3066 35.966 21.5794C35.0569 19.8294 33.6705 18.4771 31.8069 17.5225C29.9432 16.5453 27.5796 16.0566 24.716 16.0566H14.7614V73.8066H6.65188e-05ZM61.8836 73.8066V21.443H76.4063V73.8066H61.8836ZM69.179 14.693C67.02 14.693 65.1677 13.9771 63.6222 12.5453C62.0995 11.0907 61.3381 9.35209 61.3381 7.32936C61.3381 5.32936 62.0995 3.61346 63.6222 2.18164C65.1677 0.727093 67.02 -0.000181198 69.179 -0.000181198C71.3381 -0.000181198 73.179 0.727093 74.7018 2.18164C76.2472 3.61346 77.02 5.32936 77.02 7.32936C77.02 9.35209 76.2472 11.0907 74.7018 12.5453C73.179 13.9771 71.3381 14.693 69.179 14.693ZM111.631 94.5339C106.926 94.5339 102.892 93.8862 99.5285 92.5907C96.1876 91.318 93.5285 89.5794 91.5512 87.3748C89.5739 85.1703 88.2898 82.693 87.6989 79.943L101.131 78.1362C101.54 79.1816 102.188 80.1589 103.074 81.068C103.96 81.9771 105.131 82.7044 106.585 83.2498C108.063 83.818 109.858 84.1021 111.972 84.1021C115.131 84.1021 117.733 83.3294 119.778 81.7839C121.847 80.2612 122.881 77.7044 122.881 74.1135V64.5339H122.267C121.631 65.9885 120.676 67.3635 119.403 68.6589C118.131 69.9544 116.494 71.0112 114.494 71.8294C112.494 72.6475 110.108 73.0566 107.335 73.0566C103.403 73.0566 99.8239 72.1475 96.5967 70.3294C93.3921 68.4885 90.8353 65.6816 88.9262 61.9089C87.0398 58.1135 86.0967 53.318 86.0967 47.5225C86.0967 41.5907 87.0626 36.6362 88.9944 32.6589C90.9262 28.6816 93.4944 25.7044 96.6989 23.7271C99.9262 21.7498 103.46 20.7612 107.301 20.7612C110.233 20.7612 112.688 21.2612 114.665 22.2612C116.642 23.2385 118.233 24.4657 119.438 25.943C120.665 27.3975 121.608 28.8294 122.267 30.2385H122.813V21.443H137.233V74.318C137.233 78.7725 136.142 82.4998 133.96 85.4998C131.778 88.4998 128.756 90.7498 124.892 92.2498C121.051 93.7726 116.631 94.5339 111.631 94.5339ZM111.938 62.1475C114.278 62.1475 116.256 61.568 117.869 60.4089C119.506 59.2271 120.756 57.5453 121.619 55.3635C122.506 53.1589 122.949 50.5225 122.949 47.4544C122.949 44.3862 122.517 41.7271 121.653 39.4771C120.79 37.2044 119.54 35.443 117.903 34.193C116.267 32.943 114.278 32.318 111.938 32.318C109.551 32.318 107.54 32.9657 105.903 34.2612C104.267 35.5339 103.028 37.3066 102.188 39.5794C101.347 41.8521 100.926 44.4771 100.926 47.4544C100.926 50.4771 101.347 53.0907 102.188 55.2953C103.051 57.4771 104.29 59.1703 105.903 60.3748C107.54 61.5566 109.551 62.1475 111.938 62.1475ZM148.79 73.8066V21.443H162.631V30.6816H163.244C164.335 27.6135 166.153 25.193 168.699 23.4203C171.244 21.6475 174.29 20.7612 177.835 20.7612C181.426 20.7612 184.483 21.6589 187.006 23.4544C189.528 25.2271 191.21 27.6362 192.051 30.6816H192.597C193.665 27.6816 195.597 25.2839 198.392 23.4885C201.21 21.6703 204.54 20.7612 208.381 20.7612C213.267 20.7612 217.233 22.318 220.278 25.4316C223.347 28.5225 224.881 32.9089 224.881 38.5907V73.8066H210.392V41.4544C210.392 38.5453 209.619 36.3635 208.074 34.9089C206.528 33.4544 204.597 32.7271 202.278 32.7271C199.642 32.7271 197.585 33.568 196.108 35.2498C194.631 36.9089 193.892 39.1021 193.892 41.8294V73.8066H179.813V41.1475C179.813 38.5794 179.074 36.5339 177.597 35.0112C176.142 33.4885 174.222 32.7271 171.835 32.7271C170.222 32.7271 168.767 33.1362 167.472 33.9544C166.199 34.7498 165.188 35.8748 164.438 37.3294C163.688 38.7612 163.313 40.443 163.313 42.3748V73.8066H148.79ZM260.216 74.8294C254.83 74.8294 250.193 73.7385 246.307 71.5566C242.443 69.3521 239.466 66.2385 237.375 62.2157C235.284 58.1703 234.239 53.3862 234.239 47.8635C234.239 42.4771 235.284 37.7498 237.375 33.6816C239.466 29.6135 242.409 26.443 246.205 24.1703C250.023 21.8975 254.5 20.7612 259.636 20.7612C263.091 20.7612 266.307 21.318 269.284 22.4316C272.284 23.5225 274.898 25.1703 277.125 27.3748C279.375 29.5794 281.125 32.3521 282.375 35.693C283.625 39.0112 284.25 42.8975 284.25 47.3521V51.3407H240.034V42.3407H270.58C270.58 40.2498 270.125 38.3975 269.216 36.7839C268.307 35.1703 267.046 33.9089 265.432 32.9998C263.841 32.068 261.989 31.6021 259.875 31.6021C257.671 31.6021 255.716 32.1135 254.011 33.1362C252.33 34.1362 251.011 35.4885 250.057 37.193C249.102 38.8748 248.614 40.7498 248.591 42.818V51.3748C248.591 53.9657 249.068 56.2044 250.023 58.0907C251 59.9771 252.375 61.4316 254.148 62.4544C255.921 63.4771 258.023 63.9885 260.455 63.9885C262.068 63.9885 263.546 63.7612 264.886 63.3066C266.227 62.8521 267.375 62.1703 268.33 61.2612C269.284 60.3521 270.011 59.2385 270.511 57.9203L283.943 58.8066C283.261 62.0339 281.864 64.8521 279.75 67.2612C277.659 69.6475 274.955 71.5112 271.636 72.8521C268.341 74.1703 264.534 74.8294 260.216 74.8294ZM293.727 73.8066V21.443H307.568V30.6816H308.182C309.273 27.6135 311.091 25.193 313.636 23.4203C316.182 21.6475 319.227 20.7612 322.773 20.7612C326.364 20.7612 329.421 21.6589 331.943 23.4544C334.466 25.2271 336.148 27.6362 336.989 30.6816H337.534C338.602 27.6816 340.534 25.2839 343.33 23.4885C346.148 21.6703 349.477 20.7612 353.318 20.7612C358.205 20.7612 362.171 22.318 365.216 25.4316C368.284 28.5225 369.818 32.9089 369.818 38.5907V73.8066H355.33V41.4544C355.33 38.5453 354.557 36.3635 353.011 34.9089C351.466 33.4544 349.534 32.7271 347.216 32.7271C344.58 32.7271 342.523 33.568 341.046 35.2498C339.568 36.9089 338.83 39.1021 338.83 41.8294V73.8066H324.75V41.1475C324.75 38.5794 324.011 36.5339 322.534 35.0112C321.08 33.4885 319.159 32.7271 316.773 32.7271C315.159 32.7271 313.705 33.1362 312.409 33.9544C311.136 34.7498 310.125 35.8748 309.375 37.3294C308.625 38.7612 308.25 40.443 308.25 42.3748V73.8066H293.727ZM405.153 74.8294C399.767 74.8294 395.131 73.7385 391.244 71.5566C387.381 69.3521 384.403 66.2385 382.313 62.2157C380.222 58.1703 379.176 53.3862 379.176 47.8635C379.176 42.4771 380.222 37.7498 382.313 33.6816C384.403 29.6135 387.347 26.443 391.142 24.1703C394.96 21.8975 399.438 20.7612 404.574 20.7612C408.028 20.7612 411.244 21.318 414.222 22.4316C417.222 23.5225 419.835 25.1703 422.063 27.3748C424.313 29.5794 426.063 32.3521 427.313 35.693C428.563 39.0112 429.188 42.8975 429.188 47.3521V51.3407H384.972V42.3407H415.517C415.517 40.2498 415.063 38.3975 414.153 36.7839C413.244 35.1703 411.983 33.9089 410.369 32.9998C408.778 32.068 406.926 31.6021 404.813 31.6021C402.608 31.6021 400.653 32.1135 398.949 33.1362C397.267 34.1362 395.949 35.4885 394.994 37.193C394.04 38.8748 393.551 40.7498 393.528 42.818V51.3748C393.528 53.9657 394.006 56.2044 394.96 58.0907C395.938 59.9771 397.313 61.4316 399.085 62.4544C400.858 63.4771 402.96 63.9885 405.392 63.9885C407.006 63.9885 408.483 63.7612 409.824 63.3066C411.165 62.8521 412.313 62.1703 413.267 61.2612C414.222 60.3521 414.949 59.2385 415.449 57.9203L428.881 58.8066C428.199 62.0339 426.801 64.8521 424.688 67.2612C422.597 69.6475 419.892 71.5112 416.574 72.8521C413.278 74.1703 409.472 74.8294 405.153 74.8294ZM453.188 43.5339V73.8066H438.665V21.443H452.506V30.6816H453.119C454.278 27.6362 456.222 25.2271 458.949 23.4544C461.676 21.6589 464.983 20.7612 468.869 20.7612C472.506 20.7612 475.676 21.5566 478.381 23.1475C481.085 24.7385 483.188 27.0112 484.688 29.9657C486.188 32.8975 486.938 36.3975 486.938 40.4657V73.8066H472.415V43.0566C472.438 39.8521 471.619 37.3521 469.96 35.5566C468.301 33.7385 466.017 32.8294 463.108 32.8294C461.153 32.8294 459.426 33.2498 457.926 34.0907C456.449 34.9316 455.29 36.1589 454.449 37.7725C453.631 39.3635 453.21 41.2839 453.188 43.5339ZM526.236 21.443V32.3521H494.702V21.443H526.236ZM501.861 8.89755H516.384V57.7157C516.384 59.0566 516.588 60.1021 516.997 60.8521C517.406 61.5794 517.974 62.0907 518.702 62.3862C519.452 62.6816 520.315 62.8294 521.293 62.8294C521.974 62.8294 522.656 62.7725 523.338 62.6589C524.02 62.5225 524.543 62.4203 524.906 62.3521L527.19 73.1589C526.463 73.3862 525.44 73.6475 524.122 73.943C522.804 74.2612 521.202 74.4544 519.315 74.5225C515.815 74.6589 512.747 74.193 510.111 73.1248C507.497 72.0566 505.463 70.3975 504.009 68.1475C502.554 65.8975 501.838 63.0566 501.861 59.6248V8.89755ZM558.793 74.8294C553.497 74.8294 548.918 73.7044 545.054 71.4544C541.213 69.1816 538.247 66.0225 536.156 61.9771C534.065 57.9089 533.02 53.193 533.02 47.8294C533.02 42.4203 534.065 37.693 536.156 33.6475C538.247 29.5794 541.213 26.4203 545.054 24.1703C548.918 21.8975 553.497 20.7612 558.793 20.7612C564.088 20.7612 568.656 21.8975 572.497 24.1703C576.361 26.4203 579.338 29.5794 581.429 33.6475C583.52 37.693 584.565 42.4203 584.565 47.8294C584.565 53.193 583.52 57.9089 581.429 61.9771C579.338 66.0225 576.361 69.1816 572.497 71.4544C568.656 73.7044 564.088 74.8294 558.793 74.8294ZM558.861 63.5794C561.27 63.5794 563.281 62.8975 564.895 61.5339C566.509 60.1475 567.724 58.2612 568.543 55.8748C569.384 53.4885 569.804 50.7725 569.804 47.7271C569.804 44.6816 569.384 41.9657 568.543 39.5794C567.724 37.193 566.509 35.3066 564.895 33.9203C563.281 32.5339 561.27 31.8407 558.861 31.8407C556.429 31.8407 554.384 32.5339 552.724 33.9203C551.088 35.3066 549.849 37.193 549.009 39.5794C548.19 41.9657 547.781 44.6816 547.781 47.7271C547.781 50.7725 548.19 53.4885 549.009 55.8748C549.849 58.2612 551.088 60.1475 552.724 61.5339C554.384 62.8975 556.429 63.5794 558.861 63.5794Z"
          fill="black"/>
</svg>
